<?xml version="1.0" encoding="UTF-8"?>
<svg version="1.1" xmlns="http://www.w3.org/2000/svg" width="1023" height="841">
<path d="M0 0 C0.99026688 -0.00004028 1.98053375 -0.00008057 3.00080872 -0.00012207 C5.07734587 0.00520168 7.15388468 0.02264798 9.23022461 0.05175781 C12.39695075 0.09378211 15.56155612 0.09280247 18.72851562 0.0859375 C20.75652509 0.09642639 22.78452369 0.10936287 24.8125 0.125 C26.22054146 0.12530212 26.22054146 0.12530212 27.6570282 0.12561035 C36.15745663 0.277902 42.02947534 2.41619409 48.20703125 8.59375 C53.1216827 16.78483576 51.57506277 25.47855527 49.68359375 34.46875 C49.47150269 35.50128906 49.47150269 35.50128906 49.25512695 36.5546875 C48.90941094 38.23512988 48.55873385 39.91455036 48.20703125 41.59375 C49.3372168 41.58851318 50.46740234 41.58327637 51.63183594 41.57788086 C55.82876797 41.55976774 60.02569656 41.54829488 64.22265625 41.53881836 C66.03841737 41.53379259 67.85417445 41.52697097 69.66992188 41.51831055 C72.28126015 41.50616811 74.89254487 41.50050409 77.50390625 41.49609375 C78.31446472 41.49093246 79.12502319 41.48577118 79.96014404 41.48045349 C85.79669486 41.47987381 85.79669486 41.47987381 88.25860596 42.1631012 C90.88832779 42.74433291 92.67760839 41.8465676 95.13110352 40.90209961 C102.66753398 38.02088386 109.71370581 37.06830222 117.76953125 37.03125 C118.69685059 37.01715088 119.62416992 37.00305176 120.57958984 36.98852539 C126.6201696 37.07557018 130.26274816 38.08721239 135.20703125 41.59375 C137.14453125 43.84375 137.14453125 43.84375 138.20703125 45.59375 C142.94741163 45.27054225 146.54781525 44.09827817 150.89453125 42.15625 C167.77738141 34.94456339 187.0250917 36.00134141 204.20703125 41.59375 C205.28726563 41.944375 206.3675 42.295 207.48046875 42.65625 C219.17430111 46.98507226 227.30750717 55.22915128 235.20703125 64.59375 C235.86703125 65.25375 236.52703125 65.91375 237.20703125 66.59375 C238.06361328 65.66755859 238.06361328 65.66755859 238.9375 64.72265625 C253.72847576 49.27325868 272.58039945 38.90838258 294.20703125 37.59375 C309.67330256 37.41584044 309.67330256 37.41584044 316.20703125 39.59375 C316.40280762 38.52060547 316.40280762 38.52060547 316.60253906 37.42578125 C317.20821825 34.14599134 317.83246316 30.86999315 318.45703125 27.59375 C318.76447266 25.90572266 318.76447266 25.90572266 319.078125 24.18359375 C321.89479702 9.58811146 321.89479702 9.58811146 327.2421875 4.75390625 C327.91121094 4.39167969 328.58023438 4.02945313 329.26953125 3.65625 C329.94113281 3.27597656 330.61273437 2.89570313 331.3046875 2.50390625 C334.52494503 0.96320809 337.12102497 0.46320006 340.64331055 0.43261719 C341.53821701 0.42300964 342.43312347 0.4134021 343.35514832 0.40350342 C344.80356865 0.3971286 344.80356865 0.3971286 346.28125 0.390625 C347.27904984 0.38492493 348.27684967 0.37922485 349.30488586 0.37335205 C351.41898539 0.36390172 353.53309966 0.35736794 355.6472168 0.35351562 C358.86468646 0.34383975 362.0815092 0.31282862 365.29882812 0.28125 C367.35546497 0.2747167 369.41210637 0.26946751 371.46875 0.265625 C372.9019886 0.2471048 372.9019886 0.2471048 374.36418152 0.22821045 C381.62621249 0.25214243 387.36555602 1.18467318 393.08203125 6.03125 C398.75907129 12.8770924 398.01334519 20.66893524 397.53564453 29.17041016 C396.50546462 39.90234387 393.98819145 50.49767981 391.77677917 61.03588867 C390.48581088 67.19480148 389.26053634 73.3645829 388.06640625 79.54296875 C387.88984497 80.45618393 387.71328369 81.36939911 387.53137207 82.31028748 C387.17871161 84.13638692 386.82629241 85.96253297 386.47412109 87.78872681 C382.58905165 107.92464003 382.58905165 107.92464003 380.59375 117.0859375 C379.3135509 122.9817039 378.25154055 128.89209856 377.26953125 134.84375 C375.92738526 142.78750304 374.39380292 150.64827502 372.56665039 158.49438477 C371.58463337 162.74330023 370.81687359 166.95885866 370.20703125 171.28125 C368.93294475 179.23330709 365.64589553 183.83458944 359.20703125 188.59375 C356.70122269 189.84665428 354.97355827 189.73182225 352.16918945 189.75146484 C351.11661453 189.76172699 350.06403961 189.77198914 348.97956848 189.78256226 C347.83388901 189.78986359 346.68820953 189.79716492 345.5078125 189.8046875 C343.07616557 189.8327928 340.64452505 189.86145742 338.21289062 189.890625 C334.38436313 189.93161096 330.55595062 189.96849678 326.72729492 189.99511719 C308.20948004 189.99667567 308.20948004 189.99667567 289.99951172 192.91674805 C277.77646005 195.880074 261.1275326 192.60251566 250.08203125 186.84375 C248.42617636 185.80819185 246.79960311 184.72421494 245.20703125 183.59375 C244.33820312 182.98402344 243.469375 182.37429688 242.57421875 181.74609375 C236.76830051 177.3873223 232.35872341 172.53259442 228.20703125 166.59375 C227.25828125 167.41875 226.30953125 168.24375 225.33203125 169.09375 C224.68363281 169.64289063 224.03523437 170.19203125 223.3671875 170.7578125 C221.92274802 171.98545546 220.49294916 173.23052779 219.078125 174.4921875 C199.85091156 190.95406567 175.87090092 195.28469933 151.20703125 193.59375 C134.2535112 191.30109178 118.99188084 181.62544326 108.20703125 168.59375 C100.33671039 157.93159235 96.94481207 147.02522195 94.6015625 134.17578125 C94.39835388 133.07635193 94.39835388 133.07635193 94.19104004 131.95471191 C93.86109969 130.16808131 93.53378974 128.38096527 93.20703125 126.59375 C93.03576469 127.50670837 93.03576469 127.50670837 92.86103821 128.43811035 C91.66386798 134.80156049 90.44324777 141.16019688 89.20922852 147.51660156 C88.75241231 149.88590104 88.30148463 152.25634407 87.85668945 154.62792969 C87.21438836 158.04683739 86.55066036 161.46100243 85.8828125 164.875 C85.68988113 165.92739868 85.49694977 166.97979736 85.298172 168.06408691 C83.5692372 176.71987035 80.73143809 183.50969133 73.20703125 188.59375 C70.67952628 189.85750249 68.93116754 189.72074969 66.10229492 189.72314453 C65.03746384 189.72629669 63.97263275 189.72944885 62.87553406 189.73269653 C61.72035782 189.7306723 60.56518158 189.72864807 59.375 189.7265625 C58.19110184 189.72751923 57.00720367 189.72847595 55.78742981 189.72946167 C53.2781265 189.73014331 50.76882143 189.72829017 48.25952148 189.72412109 C44.4210207 189.71878681 40.58263768 189.72405934 36.74414062 189.73046875 C34.30859349 189.72980769 31.87304643 189.72852594 29.4375 189.7265625 C28.28839645 189.72858673 27.13929291 189.73061096 25.95536804 189.73269653 C24.34393669 189.72796829 24.34393669 189.72796829 22.69995117 189.72314453 C21.75778244 189.72234894 20.81561371 189.72155334 19.84489441 189.72073364 C17.20703125 189.59375 17.20703125 189.59375 14.48872375 189.02316284 C12.18688872 188.35176941 12.18688872 188.35176941 10.20703125 189.59375 C7.29217755 189.75095097 4.39763489 189.85230654 1.48046875 189.91015625 C0.61765289 189.93093735 -0.24516296 189.95171844 -1.13412476 189.97312927 C-3.89532368 190.03861034 -6.65661913 190.09750298 -9.41796875 190.15625 C-11.28777047 190.1994366 -13.15756237 190.24305093 -15.02734375 190.28710938 C-19.61578603 190.39429024 -24.20432558 190.49556175 -28.79296875 190.59375 C-28.06126465 190.97466797 -27.32956055 191.35558594 -26.57568359 191.74804688 C-12.59894403 199.16834076 -1.56948126 209.33136876 3.1875 224.77734375 C5.52789541 234.10596209 7.294294 243.87272814 2.20703125 252.59375 C0.33308168 254.82532354 -1.60435473 256.64831531 -3.79296875 258.59375 C-3.14070312 258.76390625 -2.4884375 258.9340625 -1.81640625 259.109375 C5.04511499 261.01197971 10.13962197 262.79995368 14.51953125 268.71875 C20.233904 280.17160678 15.18608697 292.74522948 11.45703125 304.09375 C11.04453125 305.24875 10.63203125 306.40375 10.20703125 307.59375 C10.92890625 307.8 11.65078125 308.00625 12.39453125 308.21875 C16.99721128 310.46894913 19.45439341 313.90927484 21.51953125 318.53125 C22.95409567 324.92158244 21.97143055 330.80362367 20.6328125 337.08984375 C20.38424751 338.27840721 20.38424751 338.27840721 20.13066101 339.49098206 C19.77884609 341.15829402 19.42313291 342.82478773 19.0637207 344.49047852 C18.52254806 347.01716477 18.00597665 349.54809589 17.49023438 352.08007812 C17.14342698 353.70865346 16.7951666 355.3369202 16.4453125 356.96484375 C16.29612869 357.71092392 16.14694489 358.45700409 15.99324036 359.22569275 C14.46771042 366.07646778 11.67229125 371.6708472 6.08203125 376.03125 C-4.47186093 381.76706097 -17.96328436 378.74095622 -28.90258789 375.54833984 C-31.74481624 374.67257241 -34.43499905 373.7878821 -37.0546875 372.3671875 C-39.42583717 371.31215911 -40.35873923 371.72844041 -42.79296875 372.59375 C-43.83066406 372.95210937 -44.86835937 373.31046875 -45.9375 373.6796875 C-47.14792969 374.10507812 -48.35835937 374.53046875 -49.60546875 374.96875 C-74.19444948 383.19684177 -100.95827441 383.78146367 -124.79296875 372.59375 C-139.31956935 364.86683479 -149.79451452 353.23236206 -154.73046875 337.46875 C-159.24486053 321.54519456 -157.54247184 304.23802273 -150.54296875 289.21875 C-145.19318017 279.64116498 -138.60251034 271.22546811 -129.79296875 264.59375 C-129.13296875 264.59375 -128.47296875 264.59375 -127.79296875 264.59375 C-128.03466797 263.51287109 -128.03466797 263.51287109 -128.28125 262.41015625 C-131.37914292 245.35992114 -125.38151159 228.52783934 -115.79296875 214.59375 C-107.84825557 203.98775359 -97.44886413 197.43996712 -85.79296875 191.59375 C-85.79296875 191.26375 -85.79296875 190.93375 -85.79296875 190.59375 C-86.98921875 190.284375 -88.18546875 189.975 -89.41796875 189.65625 C-99.52791465 186.28093578 -108.74499591 179.48076722 -115.79296875 171.59375 C-116.79395573 173.5649919 -117.76626073 175.53268576 -118.65234375 177.55859375 C-121.1902936 183.17993003 -124.15053432 186.77253279 -129.79296875 189.59375 C-131.48122207 189.70956358 -133.17390623 189.76331656 -134.8659668 189.78662109 C-135.9243425 189.80268402 -136.9827182 189.81874695 -138.07316589 189.83529663 C-142.92564288 189.8797455 -147.77798216 189.92082728 -152.63061523 189.94384766 C-155.18832508 189.96039191 -157.74598898 189.98766128 -160.3034668 190.02587891 C-163.99161771 190.08071598 -167.67868347 190.10253533 -171.3671875 190.1171875 C-173.07535896 190.15119156 -173.07535896 190.15119156 -174.81803894 190.18588257 C-181.85117191 190.16722136 -185.59094108 189.44219852 -190.79296875 184.59375 C-191.45296875 183.60375 -192.11296875 182.61375 -192.79296875 181.59375 C-193.87578125 182.7384375 -193.87578125 182.7384375 -194.98046875 183.90625 C-199.17081963 187.91036306 -202.2691252 189.96309026 -208.13061523 189.99780273 C-209.17197128 190.01048691 -210.21332733 190.02317108 -211.28623962 190.03623962 C-212.40092117 190.03330399 -213.51560272 190.03036835 -214.6640625 190.02734375 C-215.8191481 190.0325856 -216.9742337 190.03782745 -218.1643219 190.04322815 C-220.60441281 190.04964481 -223.04453467 190.048316 -225.48461914 190.03979492 C-229.21361505 190.03128845 -232.94107737 190.06004841 -236.66992188 190.09179688 C-239.04296829 190.0934091 -241.41601742 190.09283095 -243.7890625 190.08984375 C-245.45804848 190.10669472 -245.45804848 190.10669472 -247.16075134 190.12388611 C-253.37566344 190.06806866 -257.05299668 189.72952717 -261.79296875 185.59375 C-262.51484375 184.995625 -263.23671875 184.3975 -263.98046875 183.78125 C-266.36507645 180.90327519 -267.45281036 178.07816183 -268.79296875 174.59375 C-269.26863281 175.01785156 -269.74429687 175.44195312 -270.234375 175.87890625 C-287.39453128 190.25804273 -308.2766358 193.18745323 -329.98144531 191.41503906 C-345.03037794 189.88636645 -359.50799709 184.01643977 -369.79296875 172.59375 C-371.5696238 170.3157616 -373.17762497 167.99229077 -374.79296875 165.59375 C-375.45296875 165.26375 -376.11296875 164.93375 -376.79296875 164.59375 C-376.84904297 165.4290625 -376.84904297 165.4290625 -376.90625 166.28125 C-377.57852698 174.08493572 -379.18910639 180.82506816 -384.79296875 186.59375 C-388.45447218 189.17613307 -390.98795767 189.98128187 -395.45019531 190.0612793 C-396.56195129 190.08687424 -397.67370728 190.11246918 -398.81915283 190.13883972 C-400.01191833 190.1484523 -401.20468384 190.15806488 -402.43359375 190.16796875 C-403.67034851 190.1826973 -404.90710327 190.19742584 -406.18133545 190.21260071 C-408.79709706 190.2365383 -411.41294836 190.25196863 -414.02880859 190.25952148 C-418.01517279 190.27250006 -421.99884169 190.36130283 -425.984375 190.44335938 C-428.5299277 190.45935748 -431.0755054 190.47184128 -433.62109375 190.48046875 C-434.80576233 190.51234787 -435.99043091 190.54422699 -437.21099854 190.57707214 C-444.90142469 190.51497481 -448.80547992 188.95021091 -454.28729248 183.50788879 C-455.79296875 181.59375 -455.79296875 181.59375 -455.79296875 179.59375 C-456.45296875 179.59375 -457.11296875 179.59375 -457.79296875 179.59375 C-458.01984375 180.150625 -458.24671875 180.7075 -458.48046875 181.28125 C-460.74897324 185.27813886 -463.41196821 188.13341649 -467.79296875 189.59375 C-469.57507631 189.71634024 -471.36124068 189.78335871 -473.1472168 189.81835938 C-474.24233078 189.84087769 -475.33744476 189.863396 -476.46574402 189.88659668 C-481.47896311 189.95770103 -486.49203602 190.0151234 -491.50561523 190.05371094 C-494.14675024 190.08031533 -496.78778141 190.12123663 -499.4284668 190.17675781 C-503.24179982 190.25597855 -507.05315162 190.28903741 -510.8671875 190.3125 C-512.62853279 190.36198792 -512.62853279 190.36198792 -514.42546082 190.41247559 C-520.25994148 190.39830017 -523.95210744 190.09622837 -528.47583008 186.21289062 C-534.29279521 180.29857511 -535.10019749 175.63297194 -535.03369141 167.52148438 C-534.56969036 159.95064372 -532.97447503 152.57980455 -531.48046875 145.15625 C-531.16753711 143.55164306 -530.8556831 141.94682557 -530.54492188 140.34179688 C-529.16289241 133.24795119 -527.71421709 126.17196088 -526.1796875 119.109375 C-524.93333988 113.3547316 -523.8809118 107.58908301 -522.91796875 101.78125 C-519.54777476 82.00194505 -515.35576428 62.37714152 -511.29174805 42.73120117 C-511.15066116 42.0478923 -511.00957428 41.36458344 -510.86421204 40.66056824 C-510.58412454 39.30693161 -510.30263806 37.95358364 -510.0196991 36.60054016 C-509.31389658 33.20784434 -508.64402192 29.81360399 -508.03369141 26.40234375 C-507.84645004 25.38546982 -507.84645004 25.38546982 -507.65542603 24.34805298 C-507.31507173 22.48798253 -506.9871782 20.62564426 -506.66015625 18.76318359 C-505.0530485 12.88945812 -501.40736449 9.38856563 -496.50970459 6.02626038 C-493.52688006 4.45344382 -491.75511998 4.19947637 -488.41113281 4.15795898 C-487.35943909 4.13881943 -486.30774536 4.11967987 -485.22418213 4.09996033 C-483.53346588 4.09495262 -483.53346588 4.09495262 -481.80859375 4.08984375 C-480.63842712 4.07985855 -479.4682605 4.06987335 -478.26263428 4.05958557 C-475.78808117 4.04440989 -473.31346678 4.03735961 -470.83886719 4.0378418 C-467.06992189 4.03129681 -463.30363374 3.97684826 -459.53515625 3.91992188 C-457.12631105 3.91111606 -454.71745339 3.90516436 -452.30859375 3.90234375 C-451.18954651 3.8807872 -450.07049927 3.85923065 -448.9175415 3.83702087 C-441.38563492 3.9023394 -436.39590578 5.43031699 -430.79296875 10.59375 C-429.75770609 11.8998928 -428.74681029 13.22701517 -427.79296875 14.59375 C-427.27734375 13.68625 -426.76171875 12.77875 -426.23046875 11.84375 C-424.11473836 8.12006452 -420.69896303 6.09628905 -416.79296875 4.59375 C-412.71959243 4.00403392 -408.68880712 4.00913911 -404.578125 4.02734375 C-402.82356239 4.01804588 -402.82356239 4.01804588 -401.03355408 4.00856018 C-398.56673004 4.00147524 -396.09985805 4.0046127 -393.63305664 4.01733398 C-389.87100699 4.03119276 -386.11144903 3.99711196 -382.34960938 3.95898438 C-379.94661398 3.95803303 -377.54361549 3.9598928 -375.140625 3.96484375 C-374.02269058 3.95158554 -372.90475616 3.93832733 -371.75294495 3.92466736 C-364.86055316 4.0063209 -360.05744103 4.96876938 -354.79296875 9.59375 C-349.82377361 15.00837665 -349.26608837 19.81519138 -349.421875 27.0546875 C-349.90257725 31.63906894 -350.8206249 36.09138746 -351.79296875 40.59375 C-350.58761475 40.60833252 -349.38226074 40.62291504 -348.14038086 40.63793945 C-343.64675991 40.69613325 -339.15362904 40.77336448 -334.66040039 40.85620117 C-332.7197264 40.88935159 -330.77895829 40.917414 -328.83813477 40.94018555 C-326.04012128 40.97391384 -323.24296265 41.02623819 -320.4453125 41.08203125 C-319.15426857 41.09161613 -319.15426857 41.09161613 -317.83714294 41.10139465 C-312.40174092 41.23254949 -308.67660884 42.2110204 -303.79296875 44.59375 C-300.45822607 45.08176112 -299.19983884 44.83699229 -296.28637695 43.09521484 C-291.5878951 41.07581004 -287.52110754 41.16286361 -282.4609375 41.1953125 C-281.46975418 41.19244232 -280.47857086 41.18957214 -279.45735168 41.18661499 C-277.36536079 41.18457867 -275.27335067 41.19007823 -273.18139648 41.20263672 C-270.00135003 41.21864488 -266.82258439 41.20279936 -263.64257812 41.18359375 C-261.60286181 41.18557726 -259.56314628 41.18942315 -257.5234375 41.1953125 C-256.11205757 41.18620346 -256.11205757 41.18620346 -254.67216492 41.1769104 C-250.02902098 41.22564765 -246.34203524 41.61116869 -241.99731445 43.30615234 C-238.48404044 44.67914665 -238.48404044 44.67914665 -234.90136719 43.29296875 C-233.8755957 42.73222656 -232.84982422 42.17148437 -231.79296875 41.59375 C-228.21283576 41.18942169 -224.65610595 41.31556566 -221.05859375 41.40625 C-220.02539001 41.41760986 -218.99218628 41.42896973 -217.92767334 41.44067383 C-213.52652542 41.48948048 -209.12622846 41.57366011 -204.72558594 41.65527344 C-201.50329538 41.70988853 -198.28114488 41.74594946 -195.05859375 41.78125 C-194.07908752 41.80614502 -193.0995813 41.83104004 -192.09039307 41.85668945 C-186.2876184 41.9178066 -181.46645219 41.20100373 -175.97351074 39.30024719 C-162.90606806 35.06638625 -146.70340401 37.64927678 -134.54296875 43.1796875 C-123.55919857 48.82759205 -116.26067769 56.14591248 -109.79296875 66.59375 C-109.17292969 65.91570312 -108.55289062 65.23765625 -107.9140625 64.5390625 C-93.10193541 48.97231467 -74.67885788 38.68680235 -52.79296875 37.59375 C-37.84512893 37.68503452 -37.84512893 37.68503452 -30.79296875 39.59375 C-30.64601563 38.44712891 -30.64601563 38.44712891 -30.49609375 37.27734375 C-29.61733113 30.98207014 -28.49194221 24.81122546 -26.91796875 18.65625 C-26.61117188 17.45097656 -26.304375 16.24570313 -25.98828125 15.00390625 C-23.46280803 7.79887971 -20.30826817 4.8756079 -13.60021973 1.64588928 C-9.05554162 -0.05742631 -4.80731146 -0.08451138 0 0 Z M-49.41796875 112.78125 C-52.02950608 115.34432235 -52.02950608 115.34432235 -52.10546875 118.40625 C-52.00234375 119.128125 -51.89921875 119.85 -51.79296875 120.59375 C-47.96695568 119.14250366 -46.56967751 117.23600296 -44.79296875 113.59375 C-44.79296875 112.60375 -44.79296875 111.61375 -44.79296875 110.59375 C-47.10639236 110.3803552 -47.10639236 110.3803552 -49.41796875 112.78125 Z M298.14453125 112.21875 C295.84573811 115.03662547 295.5319674 117.0194523 295.20703125 120.59375 C298.5620206 119.20547854 300.3575358 117.73789226 302.20703125 114.59375 C302.20703125 113.27375 302.20703125 111.95375 302.20703125 110.59375 C300.03123782 110.38745926 300.03123782 110.38745926 298.14453125 112.21875 Z " fill="#1E1F20" transform="translate(580.79296875,229.40625)"/>
<path d="M0 0 C0.94504395 0.32145996 0.94504395 0.32145996 1.90917969 0.64941406 C19.70248635 6.74617301 34.37775732 17.66837041 44 34 C44.61875 35.010625 45.2375 36.02125 45.875 37.0625 C46.24625 37.701875 46.6175 38.34125 47 39 C48.64186279 38.26330078 48.64186279 38.26330078 50.31689453 37.51171875 C55.54539902 35.56140245 60.41015302 35.67189665 65.9296875 35.8125 C66.96006134 35.82385986 67.99043518 35.83521973 69.05203247 35.84692383 C73.42756203 35.8956112 77.8022247 35.98001335 82.17724609 36.06152344 C85.38635284 36.116118 88.59531966 36.15218233 91.8046875 36.1875 C92.77791962 36.21239502 93.75115173 36.23729004 94.75387573 36.26293945 C100.53217734 36.32421928 105.33761829 35.60229255 110.80935669 33.71679688 C124.5431284 29.22299152 142.15172474 32.21310926 155 38 C163.2228009 42.76172921 170.98445387 49.44147382 175.02734375 58.234375 C175.93557945 60.35539118 175.93557945 60.35539118 179 61 C179.35191406 60.15501953 179.35191406 60.15501953 179.7109375 59.29296875 C187.44727176 45.53167115 206.04982321 38.09892622 220.37890625 33.875 C239.6901699 29.20863208 261.064019 30.97147927 278.5625 40.6875 C293.19731674 49.82575185 304.53791243 64.89149284 308.67578125 81.75390625 C311.97522891 98.61026809 310.82296213 118.15808927 301.703125 133.12890625 C298.54423077 137.72788462 298.54423077 137.72788462 296 139 C295.79297234 141.01408339 295.68541177 143.03870585 295.625 145.0625 C294.90883125 155.18802439 291.59611944 160.13282803 284.11108398 166.8527832 C271.14874725 177.9158483 253.87789673 187.05200559 236.59375 187.23828125 C235.87320435 187.246353 235.15265869 187.25442474 234.41027832 187.26274109 C232.88389464 187.27654972 231.35748049 187.28728624 229.83105469 187.29516602 C228.29124715 187.3066162 226.75147708 187.32695611 225.21191406 187.35668945 C215.38790009 187.54610118 207.17957539 186.96305535 198 183 C197.09677002 182.61126709 196.19354004 182.22253418 195.26293945 181.82202148 C185.74174559 177.54765667 178.09884235 170.52195216 171 163 C170.82984375 163.65226563 170.6596875 164.30453125 170.484375 164.9765625 C168.19755958 173.22369471 165.68539774 178.58498428 158 183 C155.11283748 183.96238751 153.20260479 184.14778487 150.1965332 184.19287109 C149.22154373 184.20893402 148.24655426 184.22499695 147.24201965 184.24154663 C142.77829781 184.28615376 138.31472296 184.32707346 133.85083008 184.35009766 C131.5007943 184.36663693 129.15080841 184.3938998 126.80102539 184.43212891 C123.40484636 184.48707166 120.0098457 184.50880058 116.61328125 184.5234375 C115.04879997 184.55744156 115.04879997 184.55744156 113.45271301 184.59213257 C107.45896515 184.57489068 103.6017405 183.86225848 98.73234558 180.2706604 C96.90498269 178.93030563 95.04684481 177.96374755 93 177 C91.63875 178.175625 91.63875 178.175625 90.25 179.375 C86.36578764 182.72954704 83.26976786 184.24429224 78.08300781 184.29052734 C77.10809387 184.30328705 76.13317993 184.31604675 75.12872314 184.32919312 C74.08077576 184.33141876 73.03282837 184.33364441 71.953125 184.3359375 C70.3253714 184.3459227 70.3253714 184.3459227 68.66473389 184.35610962 C66.36830336 184.36623287 64.07184344 184.37092674 61.77539062 184.37060547 C58.27684437 184.37496654 54.77957209 184.41125781 51.28125 184.44921875 C49.0468793 184.4550895 46.81250262 184.45905716 44.578125 184.4609375 C43.53827454 184.47530853 42.49842407 184.48967957 41.42706299 184.50448608 C35.09440589 184.46502726 30.27775594 183.65275978 25 180 C22.94140625 177.8515625 22.94140625 177.8515625 21.5625 175.625 C21.08941406 174.89539063 20.61632812 174.16578125 20.12890625 173.4140625 C18.8219943 170.61935114 18.38226794 168.04935572 18 165 C17.29875 165.53109375 16.5975 166.0621875 15.875 166.609375 C11.08975097 170.17230498 6.46037015 173.59327342 1.01489258 176.06640625 C-0.91919974 176.96256147 -2.80345722 177.92466873 -4.6953125 178.90625 C-19.05706677 186.05500714 -33.23428431 187.57893169 -49.0625 187.5625 C-50.2583522 187.56630676 -50.2583522 187.56630676 -51.47836304 187.57019043 C-61.06426166 187.56674 -69.78750185 186.92793167 -79 184 C-80.15113281 183.65839844 -81.30226563 183.31679688 -82.48828125 182.96484375 C-101.32798527 176.11167341 -116.78957314 162.87084291 -126 145 C-131.09880584 133.8107329 -134.23268544 122.6710078 -134.6875 110.375 C-134.72439941 109.40006592 -134.76129883 108.42513184 -134.79931641 107.4206543 C-135.40366034 88.70923628 -132.33364897 70.90853515 -124 54 C-123.70673828 53.39623535 -123.41347656 52.7924707 -123.11132812 52.17041016 C-117.65661005 41.13750201 -110.71997972 32.62028152 -102 24 C-101.11441406 23.10152344 -100.22882813 22.20304688 -99.31640625 21.27734375 C-74.72377016 -2.90057672 -32.14561988 -11.57817629 0 0 Z M-45 76 C-51.17842565 82.73391714 -54.28220341 89.36490676 -54.4375 98.5 C-54.47746094 99.7890625 -54.51742187 101.078125 -54.55859375 102.40625 C-53.86571735 106.86391635 -52.53528096 108.2868774 -49 111 C-43.78135981 111.75907494 -40.42345859 110.78870216 -36 108 C-29.69450611 102.44516015 -25.53739091 96.20519334 -24.6640625 87.74609375 C-24.64472656 86.10833984 -24.64472656 86.10833984 -24.625 84.4375 C-24.58246094 82.79587891 -24.58246094 82.79587891 -24.5390625 81.12109375 C-25.10037417 77.32034779 -26.32362062 75.7056828 -29 73 C-34.64588081 70.71476253 -40.08753355 72.88023457 -45 76 Z " fill="#5E6061" transform="translate(425,609)"/>
<path d="M0 0 C22.24257379 -0.43329689 41.01651498 3.05040283 57.66796875 18.97460938 C61.97986302 23.62917073 65.38347525 28.30234561 68.10546875 34.03710938 C68.59144531 35.05546875 69.07742188 36.07382812 69.578125 37.12304688 C77.26542677 56.18070308 74.58495074 80.93568506 67.03222656 99.70410156 C59.631647 116.20547737 47.77902281 132.90466511 31.10546875 141.03710938 C30.44546875 141.03710938 29.78546875 141.03710938 29.10546875 141.03710938 C29.10546875 141.69710937 29.10546875 142.35710937 29.10546875 143.03710938 C5.61596278 152.57489826 -17.80562026 156.05335345 -41.89453125 146.03710938 C-54.21462625 140.01497339 -62.38286713 132.1243859 -68.89453125 120.03710938 C-68.89453125 119.37710938 -68.89453125 118.71710938 -68.89453125 118.03710938 C-69.55453125 118.03710938 -70.21453125 118.03710938 -70.89453125 118.03710938 C-71.71147356 115.33004593 -72.52319619 112.62159542 -73.33203125 109.91210938 C-73.67717773 108.77128906 -73.67717773 108.77128906 -74.02929688 107.60742188 C-79.75979808 88.33964971 -77.95639681 67.97960319 -68.89453125 50.03710938 C-68.4253125 48.98265625 -67.95609375 47.92820312 -67.47265625 46.84179688 C-57.85200018 25.99704205 -40.90345117 11.77033313 -19.64453125 3.59960938 C-12.94833248 1.16491508 -7.07698688 0.13862139 0 0 Z M-6.89453125 60.03710938 C-13.0729569 66.77102651 -16.17673466 73.40201614 -16.33203125 82.53710938 C-16.37199219 83.82617188 -16.41195312 85.11523438 -16.453125 86.44335938 C-15.7602486 90.90102572 -14.42981221 92.32398678 -10.89453125 95.03710938 C-5.67589106 95.79618431 -2.31798984 94.82581153 2.10546875 92.03710938 C8.41096264 86.48226952 12.56807784 80.24230271 13.44140625 71.78320312 C13.46074219 70.14544922 13.46074219 70.14544922 13.48046875 68.47460938 C13.52300781 66.83298828 13.52300781 66.83298828 13.56640625 65.15820312 C13.00509458 61.35745717 11.78184813 59.74279218 9.10546875 57.03710938 C3.45958794 54.7518719 -1.9820648 56.91734395 -6.89453125 60.03710938 Z " fill="#2FDDF3" transform="translate(386.89453125,624.962890625)"/>
<path d="M0 0 C0.86963379 -0.00676758 1.73926758 -0.01353516 2.63525391 -0.02050781 C9.47600082 0.17629003 14.57041753 2.32862678 20 6.4375 C24.76421291 12.78978389 25.31507411 19.23784568 24.21948242 27.00585938 C23.99623291 28.16923828 23.7729834 29.33261719 23.54296875 30.53125 C23.35482101 31.52371986 23.35482101 31.52371986 23.16287231 32.53623962 C22.74014572 34.75464027 22.30771534 36.97102773 21.875 39.1875 C21.56826885 40.78387128 21.26188316 42.38030897 20.95581055 43.97680664 C17.6075736 61.36165319 14.10518605 78.71727468 10.59643555 96.0703125 C7.95771554 109.14649365 5.45439173 122.23744828 3.10513306 135.36862183 C1.56872186 143.89943692 -0.09372304 152.40639018 -1.77490234 160.90966797 C-2.22785122 163.25010955 -2.64881434 165.59184859 -3.05078125 167.94140625 C-4.39290759 175.04726534 -6.51261697 180.11516503 -12.3125 184.6875 C-17.98872581 188.39825605 -23.40148932 188.17110875 -29.95703125 188.19140625 C-31.08139084 188.20139145 -32.20575043 188.21137665 -33.36418152 188.22166443 C-35.73859996 188.23682325 -38.11308205 188.24389092 -40.48754883 188.2434082 C-44.10280785 188.24995978 -47.71530573 188.30444329 -51.33007812 188.36132812 C-53.64321983 188.37013301 -55.95637451 188.37608534 -58.26953125 188.37890625 C-59.34169388 188.4004628 -60.41385651 188.42201935 -61.51850891 188.44422913 C-68.91820503 188.37733769 -73.79791173 186.7235778 -79.3125 181.6875 C-84.09926068 175.86777387 -84.85089897 170.06585826 -84.3125 162.6875 C-83.48330582 157.13270032 -82.40092282 151.6339201 -81.3125 146.125 C-81.00062063 144.51484593 -80.68935311 142.90457325 -80.37866211 141.29418945 C-79.37055961 136.08918248 -78.34333669 130.888046 -77.3125 125.6875 C-77.12955383 124.76348389 -76.94660767 123.83946777 -76.75811768 122.88745117 C-74.30076393 110.48252248 -71.81710129 98.08297096 -69.3125 85.6875 C-69.92738281 85.41808594 -70.54226563 85.14867187 -71.17578125 84.87109375 C-75.10305575 82.69565651 -76.93127076 78.83118772 -78.3125 74.6875 C-79.5088724 64.84194357 -76.85947838 55.00699432 -74.86376953 45.43164062 C-74.32865189 42.76790181 -73.85665451 40.10044697 -73.40234375 37.421875 C-70.40299041 20.40473337 -70.40299041 20.40473337 -63.3125 14.6875 C-58.60305283 11.99638733 -53.98128125 10.69623706 -48.73291016 9.46386719 C-47.99733887 9.29016602 -47.26176758 9.11646484 -46.50390625 8.9375 C-45.69840332 8.74800781 -44.89290039 8.55851562 -44.06298828 8.36328125 C-40.89081259 7.58389351 -37.74243406 6.73011868 -34.58984375 5.875 C-23.09860973 2.82537962 -11.94759099 0.03709792 0 0 Z " fill="#1D1D1E" transform="translate(542.3125,45.3125)"/>
<path d="M0 0 C12.54 0 25.08 0 38 0 C37.34 2.97 36.68 5.94 36 9 C35.65085863 10.82647608 35.3149669 12.65560277 35 14.48828125 C34.83612793 15.43638672 34.67225586 16.38449219 34.50341797 17.36132812 C34.33729004 18.33521484 34.17116211 19.30910156 34 20.3125 C33.82484863 21.32634766 33.64969727 22.34019531 33.46923828 23.38476562 C32.43015799 29.41588589 31.41853653 35.4503737 30.4921875 41.5 C30 44 30 44 29.03125 47.328125 C27.96908567 51.11007377 27.25708301 54.88038509 26.625 58.75 C25.58110577 64.91066513 24.38924838 71.01925636 23.0625 77.125 C21.53308259 84.18082868 20.24894951 91.25391693 19.0625 98.375 C17.63947636 106.89318957 15.81331555 115.23325526 13.72387695 123.6105957 C12.14219299 130.07074153 11.09588664 136.45989681 10.359375 143.06640625 C10 146 10 146 9 150 C-2.55 150 -14.1 150 -26 150 C-26 147.03 -26 144.06 -26 141 C-26.72703125 141.45890625 -27.4540625 141.9178125 -28.203125 142.390625 C-39.26674397 149.1422694 -48.23030301 152.32897274 -61.1875 152.5 C-62.57751221 152.52791626 -62.57751221 152.52791626 -63.99560547 152.55639648 C-74.84158312 152.45667003 -82.73664497 147.72341063 -90.5859375 140.55078125 C-99.68181942 130.99769892 -103.17901289 119.15659074 -103.1875 106.375 C-103.20586914 104.95380859 -103.20586914 104.95380859 -103.22460938 103.50390625 C-103.2493001 91.47129267 -101.0010001 79.93690337 -94 70 C-93.69707031 69.21367187 -93.39414062 68.42734375 -93.08203125 67.6171875 C-88.06199897 55.47487115 -74.74489508 45.88300218 -63.25 40.3125 C-56.10709599 37.71849802 -49.18739458 37.44427788 -41.625 37.375 C-40.51930664 37.36380127 -39.41361328 37.35260254 -38.27441406 37.34106445 C-29.44431201 37.49765017 -22.56088 39.53532456 -15.625 45.125 C-13.44374315 46.85743857 -11.3253829 48.44974473 -9 50 C-8.90203125 49.07703125 -8.8040625 48.1540625 -8.703125 47.203125 C-7.77421553 39.09919069 -6.54090735 31.12463994 -4.9375 23.125 C-4.7631543 22.25133789 -4.58880859 21.37767578 -4.40917969 20.47753906 C-3.1354612 14.27092241 -3.1354612 14.27092241 -2 12 C-1.34 8.04 -0.68 4.08 0 0 Z M-42.0625 91.625 C-44.36129314 94.44287547 -44.67506385 96.4257023 -45 100 C-41.64501065 98.61172854 -39.84949545 97.14414226 -38 94 C-38 92.68 -38 91.36 -38 90 C-40.17579343 89.79370926 -40.17579343 89.79370926 -42.0625 91.625 Z " fill="#6FDBF7" transform="translate(921,250)"/>
<path d="M0 0 C12.21 0 24.42 0 37 0 C35.8764954 12.35855058 35.8764954 12.35855058 34.94921875 16.515625 C34.64612793 17.91071289 34.64612793 17.91071289 34.33691406 19.33398438 C34.12260742 20.29626953 33.90830078 21.25855469 33.6875 22.25 C31.87870294 30.64176213 30.2124148 39.04070459 28.75 47.5 C28.58717529 48.43618164 28.42435059 49.37236328 28.2565918 50.33691406 C27.57447411 54.33471053 26.94904529 58.31105687 26.515625 62.34375 C26.04973833 65.64731006 25.2598526 67.95615766 24 71 C23.48800537 73.52340211 23.03240696 76.02285867 22.625 78.5625 C21.5481871 84.93606825 20.39378897 91.28672781 19.125 97.625 C18.95959717 98.45193359 18.79419434 99.27886719 18.6237793 100.13085938 C17.50719769 105.64697235 16.31079246 111.14252057 15.08813477 116.63598633 C12.62387544 127.72006759 10.65481408 138.76468332 9 150 C-2.55 150 -14.1 150 -26 150 C-26 146.7 -26 143.4 -26 140 C-26.65226563 140.47050781 -27.30453125 140.94101562 -27.9765625 141.42578125 C-41.84248992 151.30372069 -54.70608748 153.65609329 -71.44921875 151.5703125 C-82.07175102 149.36691912 -89.73905927 142.66539178 -96 134 C-102.08374457 123.88194206 -103.34573032 114.75561242 -103.3125 103.125 C-103.32861328 102.00480469 -103.34472656 100.88460937 -103.36132812 99.73046875 C-103.37133561 82.57763802 -95.69077928 66.78899664 -83.6875 54.6640625 C-71.45630198 43.15909186 -58.73874754 37.26441796 -41.875 37.5 C-40.20244141 37.47679687 -40.20244141 37.47679687 -38.49609375 37.453125 C-29.09651082 37.49741043 -22.30454489 39.72616688 -14.9375 45.625 C-14.18339844 46.21539062 -13.42929687 46.80578125 -12.65234375 47.4140625 C-12.10707031 47.93742187 -11.56179688 48.46078125 -11 49 C-11 49.66 -11 50.32 -11 51 C-10.34 51 -9.68 51 -9 51 C-8.87044922 49.73736328 -8.87044922 49.73736328 -8.73828125 48.44921875 C-7.69425733 39.22541109 -6.19137527 30.12749829 -4.5 21 C-4.28641846 19.84330811 -4.07283691 18.68661621 -3.8527832 17.49487305 C-2.74127574 11.58723443 -1.46164419 5.84657675 0 0 Z M-42.625 92.1875 C-45.23653733 94.75057235 -45.23653733 94.75057235 -45.3125 97.8125 C-45.209375 98.534375 -45.10625 99.25625 -45 100 C-41.17398693 98.54875366 -39.77670876 96.64225296 -38 93 C-38 92.01 -38 91.02 -38 90 C-40.31342361 89.7866052 -40.31342361 89.7866052 -42.625 92.1875 Z " fill="#6FDCF7" transform="translate(574,250)"/>
<path d="M0 0 C1.97719856 1.41333082 3.79792728 2.88952864 5.609375 4.5078125 C6.558125 5.3534375 7.506875 6.1990625 8.484375 7.0703125 C10.65191384 9.55660705 11.59865092 11.39789225 12.609375 14.5078125 C12.980625 15.2503125 13.351875 15.9928125 13.734375 16.7578125 C14.98154562 20.6774916 14.76935541 24.42831196 14.609375 28.5078125 C13.62839844 28.75015625 12.64742187 28.9925 11.63671875 29.2421875 C10.27337351 29.58047137 8.91009755 29.91903454 7.546875 30.2578125 C6.83112305 30.43538086 6.11537109 30.61294922 5.37792969 30.79589844 C1.69086623 31.71645092 -1.98706415 32.66001666 -5.65234375 33.6640625 C-6.32322021 33.84743164 -6.99409668 34.03080078 -7.68530273 34.21972656 C-9.5517967 34.7333678 -11.41657044 35.25324792 -13.28125 35.7734375 C-16.390625 36.5078125 -16.390625 36.5078125 -20.390625 36.5078125 C-20.81380208 34.52213542 -21.23697917 32.53645833 -21.66015625 30.55078125 C-22.53133531 28.11427511 -23.30105582 27.03607528 -25.390625 25.5078125 C-30.10967806 24.61999065 -34.19943546 24.83776838 -38.390625 27.1953125 C-42.13517884 31.52495288 -42.85616737 35.46241726 -42.69921875 41.06640625 C-42.12700254 45.59343324 -40.356152 49.42421013 -38.390625 53.5078125 C-37.92785156 54.508125 -37.46507812 55.5084375 -36.98828125 56.5390625 C-32.02068499 66.54712929 -24.80906415 77.16891073 -15.390625 83.5078125 C-15.28105469 82.9509375 -15.17148437 82.3940625 -15.05859375 81.8203125 C-14.90003906 81.0571875 -14.74148438 80.2940625 -14.578125 79.5078125 C-14.35189453 78.3940625 -14.35189453 78.3940625 -14.12109375 77.2578125 C-13.1473552 73.59197326 -11.7224221 70.05927144 -10.390625 66.5078125 C1.819375 66.5078125 14.029375 66.5078125 26.609375 66.5078125 C26.609375 74.3828125 26.609375 74.3828125 25.109375 78.4453125 C24.69171875 79.60353516 24.69171875 79.60353516 24.265625 80.78515625 C24.0490625 81.35363281 23.8325 81.92210937 23.609375 82.5078125 C22.949375 82.5078125 22.289375 82.5078125 21.609375 82.5078125 C21.50625 83.1471875 21.403125 83.7865625 21.296875 84.4453125 C20.09157979 89.81435478 18.47170307 94.90634608 15.859375 99.7578125 C14.15897344 102.78779185 14.15897344 102.78779185 15.609375 107.5078125 C20.559375 109.1578125 25.509375 110.8078125 30.609375 112.5078125 C29.86342781 119.91231992 28.74608035 127.22676878 27.546875 134.5703125 C27.36060547 135.72208984 27.17433594 136.87386719 26.98242188 138.06054688 C26.52670759 140.87662745 26.06898124 143.69236497 25.609375 146.5078125 C23.98446546 146.53479439 22.35942867 146.55420007 20.734375 146.5703125 C19.37699219 146.58771484 19.37699219 146.58771484 17.9921875 146.60546875 C15.609375 146.5078125 15.609375 146.5078125 13.609375 145.5078125 C13.609375 144.8478125 13.609375 144.1878125 13.609375 143.5078125 C11.7840625 143.476875 11.7840625 143.476875 9.921875 143.4453125 C4.04491825 142.85947662 -0.3298808 139.9629243 -5.27734375 136.90625 C-9.01208884 135.22866061 -10.51190841 135.31941824 -14.390625 136.5078125 C-16.50500034 137.55130603 -18.58690582 138.66199504 -20.640625 139.8203125 C-32.95785338 146.32793709 -46.56140984 148.46903597 -60.390625 147.5078125 C-62.30101562 147.41886719 -62.30101562 147.41886719 -64.25 147.328125 C-76.35331238 146.49984015 -88.55544071 142.32331752 -96.890625 133.1328125 C-99.390625 129.93128189 -99.390625 129.93128189 -99.390625 127.5078125 C-100.050625 127.5078125 -100.710625 127.5078125 -101.390625 127.5078125 C-107.41859714 114.08187455 -107.97850705 101.6456476 -103.390625 87.5078125 C-97.74342225 75.83991475 -88.70478211 67.60298131 -77.390625 61.5078125 C-76.730625 61.5078125 -76.070625 61.5078125 -75.390625 61.5078125 C-75.6071875 60.57582031 -75.82375 59.64382813 -76.046875 58.68359375 C-79.32395147 43.67883159 -80.14598679 30.32920945 -71.640625 16.7578125 C-55.54932508 -5.54416458 -24.36060266 -15.20547421 0 0 Z " fill="#4EDBF4" transform="translate(550.390625,442.4921875)"/>
<path d="M0 0 C13.2 0 26.4 0 40 0 C40 5 40 5 39.08984375 7.20703125 C37.50747283 11.26221121 37.1271377 15.38823825 36.5625 19.6875 C35.05976249 30.4784855 35.05976249 30.4784855 33.4375 35.3125 C31.4843324 41.68152478 30.8804459 48.39665575 30 55 C41.88 55 53.76 55 66 55 C68.69700414 40.92791537 68.69700414 40.92791537 71.30859375 26.83984375 C71.52749268 25.64141846 71.7463916 24.44299316 71.97192383 23.20825195 C72.40044827 20.85705447 72.82616199 18.50534261 73.2487793 16.15307617 C73.44769775 15.06357666 73.64661621 13.97407715 73.8515625 12.8515625 C74.11187256 11.41031006 74.11187256 11.41031006 74.37744141 9.93994141 C75.08733286 6.58758343 76.05861403 3.29485088 77 0 C90.2 0 103.4 0 117 0 C117 4.57518957 116.65637568 6.04785859 115 10 C114.63619824 11.78805048 114.32896029 13.58827059 114.0703125 15.39453125 C113.91675293 16.42513672 113.76319336 17.45574219 113.60498047 18.51757812 C113.36739014 20.14856445 113.36739014 20.14856445 113.125 21.8125 C111.61361225 31.74324869 109.62480343 41.30931948 107 51 C105.74679194 56.03632988 104.82158608 61.05286898 104.0625 66.1875 C103.21247216 71.9302078 102.0684857 77.56301668 100.78125 83.22265625 C100.15027333 86.27342843 99.61954286 89.30046615 99.12890625 92.375 C98.3183142 97.3330314 97.35454468 102.24011618 96.30859375 107.15234375 C96.15730011 107.86612686 96.00600647 108.57990997 95.85012817 109.31532288 C95.22411403 112.26207232 94.59594989 115.20827679 93.95629883 118.15209961 C92.11041239 126.67222846 90.6169107 134.91957753 90.19555664 143.65844727 C90 146 90 146 89 147 C86.04294679 147.08868299 83.10934944 147.11520296 80.15234375 147.09765625 C78.82270348 147.09553383 78.82270348 147.09553383 77.46620178 147.09336853 C74.62326746 147.08775215 71.78041069 147.07519691 68.9375 147.0625 C67.01497509 147.05748711 65.09244896 147.05292384 63.16992188 147.04882812 C58.44658451 147.03777741 53.72330542 147.02050183 49 147 C49.85552473 138.88761254 50.7180761 131.1361192 53.30419922 123.36474609 C54.6052588 118.94296956 55.02986685 114.37927768 55.5625 109.8125 C55.78795156 107.92257182 56.01831346 106.03322206 56.25390625 104.14453125 C56.35002197 103.32315674 56.4461377 102.50178223 56.54516602 101.65551758 C57.10580139 98.38228572 58.08767935 95.19312228 59 92 C46.79 92 34.58 92 22 92 C21.67 95.3 21.34 98.6 21 102 C20.38290413 104.01584651 19.71706982 106.01751285 19 108 C17.01547081 115.78277002 15.80922507 123.73171715 14.5 131.6484375 C14.335 132.62296875 14.17 133.5975 14 134.6015625 C13.855625 135.47119629 13.71125 136.34083008 13.5625 137.23681641 C12.89133101 140.53381757 11.92433288 143.76483491 11 147 C-1.87 147 -14.74 147 -28 147 C-26.87566079 134.63226872 -26.87566079 134.63226872 -25.6171875 128.3515625 C-25.48223373 127.6684198 -25.34727997 126.9852771 -25.20823669 126.28143311 C-24.76881664 124.06159643 -24.32187965 121.84334575 -23.875 119.625 C-23.23846042 116.42235404 -22.60573342 113.21895692 -21.97265625 110.015625 C-21.81006821 109.19585175 -21.64748016 108.37607849 -21.47996521 107.53146362 C-20.32791755 101.70919716 -19.21308355 95.88068754 -18.12109375 90.046875 C-17.89229523 88.82603714 -17.89229523 88.82603714 -17.65887451 87.58053589 C-17.06839015 84.42628051 -16.4786085 81.27190833 -15.89422607 78.11651611 C-14.23527656 69.16374253 -12.41879318 60.2690046 -10.40782166 51.38844299 C-9.02337236 45.22766689 -7.88533146 39.04580583 -6.875 32.8125 C-5.8845906 26.73498778 -4.72869175 20.91881292 -3 15 C-2.60847705 12.73530845 -2.25287696 10.46404462 -1.9375 8.1875 C-1.10526316 2.21052632 -1.10526316 2.21052632 0 0 Z " fill="#71DBF7" transform="translate(94,253)"/>
<path d="M0 0 C1.28068359 -0.02449219 2.56136719 -0.04898437 3.88085938 -0.07421875 C11.46680267 -0.09764421 17.09315751 0.57026204 23.6875 4.375 C25.04875 5.04402344 25.04875 5.04402344 26.4375 5.7265625 C36.88096604 11.63727418 44.39554003 20.60201073 48.4375 31.875 C51.97688093 44.89205653 49.66338547 58.42322905 43.6875 70.375 C20.2575 70.375 -3.1725 70.375 -27.3125 70.375 C-23.90548186 78.54398826 -23.90548186 78.54398826 -17.625 84.1875 C-9.30243184 87.17106217 -2.14698924 84.92426104 5.6875 81.375 C6.96367188 80.53388672 6.96367188 80.53388672 8.265625 79.67578125 C10.6875 78.375 10.6875 78.375 12.671875 78.45703125 C15.36973817 79.68570924 17.56579004 81.28371753 19.9375 83.0625 C20.89785156 83.77792969 21.85820313 84.49335938 22.84765625 85.23046875 C23.78480469 85.93816406 24.72195313 86.64585937 25.6875 87.375 C26.51121094 87.98988281 27.33492187 88.60476563 28.18359375 89.23828125 C30.02246359 90.61169741 31.85706588 91.99037362 33.6875 93.375 C29.5869001 103.13011134 16.92932004 108.64753695 7.6640625 112.62402344 C2.78386025 114.47821095 -2.13364547 115.07906546 -7.3125 115.375 C-8.22257813 115.43171875 -9.13265625 115.4884375 -10.0703125 115.546875 C-25.55845959 115.99842448 -37.46547311 112.54076565 -49.3125 102.375 C-51.11328125 100.3046875 -51.11328125 100.3046875 -52.625 98.25 C-53.13675781 97.56679688 -53.64851562 96.88359375 -54.17578125 96.1796875 C-55.3125 94.375 -55.3125 94.375 -55.3125 92.375 C-55.9725 92.375 -56.6325 92.375 -57.3125 92.375 C-57.58964844 91.59253906 -57.86679687 90.81007813 -58.15234375 90.00390625 C-58.51457031 88.99199219 -58.87679687 87.98007812 -59.25 86.9375 C-59.60964844 85.92816406 -59.96929688 84.91882813 -60.33984375 83.87890625 C-61.08127639 81.47186255 -61.08127639 81.47186255 -62.3125 80.375 C-65.44736261 62.49719654 -63.14799645 44.51841129 -53.25390625 29.046875 C-39.81738917 10.55476698 -22.92878004 0.0228716 0 0 Z " fill="#6EDBF6" transform="translate(758.3125,287.625)"/>
<path d="M0 0 C0.99 0.45117188 1.98 0.90234375 3 1.3671875 C9.96021394 5.15542894 16.49922898 11.46662272 21 18 C21.8125 21.375 21.8125 21.375 22 24 C22.66 24 23.32 24 24 24 C27.5730404 36.05901135 27.91447597 51.91588113 22.88298035 63.59220886 C21 66 21 66 17.94380188 66.60127258 C16.68915634 66.59016953 15.4345108 66.57906647 14.1418457 66.56762695 C13.44890411 66.56835709 12.75596252 66.56908722 12.04202271 66.56983948 C9.75247801 66.56635697 7.46497022 66.52747027 5.17578125 66.48828125 C3.58824271 66.47895534 2.00068978 66.47183818 0.41313171 66.46684265 C-3.76461543 66.44775495 -7.94149289 66.39864006 -12.11889648 66.34332275 C-16.38187901 66.29216777 -20.64500212 66.26933671 -24.90820312 66.24414062 C-33.27253446 66.19052198 -41.63615904 66.10518905 -50 66 C-49.505 69.465 -49.505 69.465 -49 73 C-48.34 73 -47.68 73 -47 73 C-45.65668346 74.99330842 -44.32405988 76.99384866 -43 79 C-37.73455772 82.51029485 -30.18238392 81.81343141 -24 81 C-20.31793165 79.76653003 -17.25796427 78.0835818 -14 76 C-12.67406246 75.31874244 -11.34287117 74.64723971 -10 74 C-10 74.66 -10 75.32 -10 76 C-9.34644531 76.21398437 -8.69289063 76.42796875 -8.01953125 76.6484375 C-3.89045959 78.49663775 -0.37721121 81.02670471 3.3125 83.625 C4.42334961 84.3984375 4.42334961 84.3984375 5.55664062 85.1875 C7.37422697 86.45394726 9.18850838 87.72485759 11 89 C9.7789337 95.0526519 4.78919771 97.52245054 0 101 C-0.7321875 101.55300781 -1.464375 102.10601563 -2.21875 102.67578125 C-14.55055759 111.07791071 -30.44058288 113.15113432 -45 112 C-45.91007813 111.93941406 -46.82015625 111.87882813 -47.7578125 111.81640625 C-58.21296913 110.45488264 -67.31470226 103.27733711 -74.51171875 95.95703125 C-76.19006029 93.7500782 -77.08601943 91.60687069 -78 89 C-78.66 89 -79.32 89 -80 89 C-80.81436587 86.58394775 -81.62655397 84.16720002 -82.4375 81.75 C-82.66759766 81.06808594 -82.89769531 80.38617187 -83.13476562 79.68359375 C-88.63264548 63.26963362 -86.76542279 47.40611758 -79.375 31.9375 C-75.87169257 24.97564283 -71.67674598 19.38711608 -66 14 C-65.22140625 13.26007812 -64.4428125 12.52015625 -63.640625 11.7578125 C-52.98923993 2 -52.98923993 2 -47 2 C-47 1.34 -47 0.68 -47 0 C-32.10036103 -5.60927585 -14.68804474 -6.93795478 0 0 Z " fill="#2CDCF2" transform="translate(688,665)"/>
<path d="M0 0 C1.63388672 -0.0299707 1.63388672 -0.0299707 3.30078125 -0.06054688 C14.41004367 -0.05383027 20.30464062 3.64706353 28.296875 11.13671875 C35.63264208 18.79765281 37.01350259 28.17948067 37.07885742 38.4440918 C36.8582911 48.14986165 34.56690467 57.42575828 32.35522461 66.82641602 C29.7094181 78.10609145 27.7434664 89.41186552 26.01098633 100.86450195 C25.82431396 102.09257568 25.6376416 103.32064941 25.4453125 104.5859375 C25.28562988 105.67052246 25.12594727 106.75510742 24.96142578 107.87255859 C24.5 110.4375 24.5 110.4375 23.5 112.4375 C11.29 112.4375 -0.92 112.4375 -13.5 112.4375 C-13.5 107.11683543 -13.14204655 102.60433385 -12.109375 97.4765625 C-11.96348938 96.72772797 -11.81760376 95.97889343 -11.66729736 95.20736694 C-11.35764783 93.6250993 -11.04482621 92.04344947 -10.72900391 90.46240234 C-10.25852909 88.10523238 -9.79829853 85.74625246 -9.33984375 83.38671875 C-7.67045039 74.8733084 -5.85977184 66.41159653 -3.77008057 57.99050903 C-2.21096373 51.60693481 -1.46998369 46.47032582 -3.625 40.125 C-5.9721022 36.76082018 -7.78984719 35.22386987 -11.5 33.4375 C-16.96380507 32.64131711 -22.48248097 33.15680953 -27.5 35.4375 C-35.8210698 42.11936594 -37.54591734 50.31922434 -39.375 60.25 C-39.65619156 61.64962611 -39.9400333 63.04872247 -40.2265625 64.44726562 C-41.64183165 71.44949734 -42.8529514 78.48105489 -43.99951172 85.53198242 C-44.90325457 90.7785403 -46.01946932 95.98042847 -47.125 101.1875 C-47.90875 104.9 -48.6925 108.6125 -49.5 112.4375 C-61.71 112.4375 -73.92 112.4375 -86.5 112.4375 C-84.20591941 92.93781498 -84.20591941 92.93781498 -82.6953125 86.2734375 C-82.53128433 85.51579605 -82.36725616 84.7581546 -82.19825745 83.97755432 C-81.85486722 82.3932506 -81.50822161 80.80964891 -81.15829468 79.22677612 C-80.24248915 75.0808367 -79.35302139 70.92927638 -78.46484375 66.77734375 C-78.29098648 65.96598465 -78.11712921 65.15462555 -77.93800354 64.31867981 C-76.33567579 56.78142039 -74.98910823 49.2115547 -73.72924805 41.61010742 C-72.78021032 35.9153452 -71.59883765 30.32849019 -70.2265625 24.71875 C-68.66918285 17.68542253 -67.63978255 10.5475721 -66.5 3.4375 C-54.62 3.4375 -42.74 3.4375 -30.5 3.4375 C-30.5 5.4175 -30.5 7.3975 -30.5 9.4375 C-29.8709375 9.03917969 -29.241875 8.64085937 -28.59375 8.23046875 C-27.7378125 7.70066406 -26.881875 7.17085938 -26 6.625 C-24.74703125 5.84189453 -24.74703125 5.84189453 -23.46875 5.04296875 C-15.43405273 0.69788904 -9.04997358 -0.05890515 0 0 Z " fill="#6EDAF6" transform="translate(419.5,287.5625)"/>
<path d="M0 0 C7.81577179 6.51968903 10.67607068 13.89589834 11.75390625 23.8359375 C12.6472852 38.90260799 8.88766871 53.41253949 5.59414673 67.9982605 C4.38878713 73.42750318 3.53762486 78.87215889 2.83740234 84.39086914 C2.33203125 86.9453125 2.33203125 86.9453125 0.33203125 89.9453125 C-0.32796875 94.5653125 -0.98796875 99.1853125 -1.66796875 103.9453125 C-13.87796875 103.9453125 -26.08796875 103.9453125 -38.66796875 103.9453125 C-38.66796875 103.2853125 -38.66796875 102.6253125 -38.66796875 101.9453125 C-38.00796875 101.9453125 -37.34796875 101.9453125 -36.66796875 101.9453125 C-36.72597656 101.29691406 -36.78398438 100.64851562 -36.84375 99.98046875 C-37.44460114 86.91624824 -33.93416361 74.21400795 -31.13671875 61.53808594 C-28.78620594 50.84814956 -28.32792103 40.82683943 -28.66796875 29.9453125 C-29.27125 29.64882813 -29.87453125 29.35234375 -30.49609375 29.046875 C-32.1687904 28.19849289 -33.80326294 27.27445684 -35.41796875 26.3203125 C-40.08391416 24.34625867 -43.94687944 24.17808807 -48.74609375 25.53125 C-54.68929297 28.00380235 -57.88580526 32.25788095 -60.66796875 37.9453125 C-63.19232322 44.16678962 -64.22820466 50.09091758 -64.73046875 56.7578125 C-64.85978471 58.41075208 -64.99625092 60.06315128 -65.140625 61.71484375 C-65.22195679 62.79149292 -65.22195679 62.79149292 -65.30493164 63.88989258 C-65.66796875 65.9453125 -65.66796875 65.9453125 -66.63842773 67.87915039 C-67.86431623 70.33935772 -68.24252442 72.52074293 -68.66796875 75.234375 C-68.91546875 76.77158203 -68.91546875 76.77158203 -69.16796875 78.33984375 C-69.33296875 79.40589844 -69.49796875 80.47195313 -69.66796875 81.5703125 C-69.99969431 83.66692168 -70.33301218 85.76327958 -70.66796875 87.859375 C-70.81234375 88.7870166 -70.95671875 89.7146582 -71.10546875 90.67041016 C-71.86836401 95.11202343 -72.78414103 99.52617388 -73.66796875 103.9453125 C-85.87796875 103.9453125 -98.08796875 103.9453125 -110.66796875 103.9453125 C-109.54092225 93.80189403 -109.54092225 93.80189403 -108.90625 89.9765625 C-108.75994141 89.09234619 -108.61363281 88.20812988 -108.46289062 87.29711914 C-108.30369141 86.35602295 -108.14449219 85.41492676 -107.98046875 84.4453125 C-107.72426758 82.92442017 -107.72426758 82.92442017 -107.46289062 81.37280273 C-100.64189432 41.23961611 -100.64189432 41.23961611 -96.609375 25.16015625 C-95.01425388 18.41937398 -94.04099289 11.53899113 -92.97412109 4.69897461 C-92.81766113 3.70776611 -92.66120117 2.71655762 -92.5 1.6953125 C-92.36311768 0.80328125 -92.22623535 -0.08875 -92.08520508 -1.0078125 C-91.66796875 -3.0546875 -91.66796875 -3.0546875 -90.66796875 -4.0546875 C-88.07437553 -4.14320279 -85.50757184 -4.16994695 -82.9140625 -4.15234375 C-82.13861588 -4.1509288 -81.36316925 -4.14951385 -80.56422424 -4.14805603 C-78.07793381 -4.14244095 -75.59173215 -4.12988596 -73.10546875 -4.1171875 C-71.42382942 -4.11217444 -69.74218869 -4.1076112 -68.06054688 -4.10351562 C-63.92965309 -4.09246663 -59.79882599 -4.07519195 -55.66796875 -4.0546875 C-55.66796875 -2.0746875 -55.66796875 -0.0946875 -55.66796875 1.9453125 C-54.9409375 1.47480469 -54.21390625 1.00429688 -53.46484375 0.51953125 C-36.17958035 -10.1840357 -16.80515959 -12.33927232 0 0 Z " fill="#2DDCF3" transform="translate(575.66796875,669.0546875)"/>
<path d="M0 0 C12.21 0 24.42 0 37 0 C36.19640224 6.4287821 35.24016009 12.75062483 34.125 19.125 C33.94864014 20.14182861 33.77228027 21.15865723 33.59057617 22.20629883 C32.61901968 27.73375659 31.5538254 33.21466142 30.3125 38.6875 C28.39000528 47.42231295 27.92605562 56.07516836 27.75 65 C27.71132812 66.85625 27.71132812 66.85625 27.671875 68.75 C28.02646943 72.26217337 28.35149482 73.68113709 31 76 C35.84548917 77.02010298 40.52802268 76.75164799 44.9375 74.5 C47.62307202 71.24476118 49.28606004 67.83204044 51 64 C51.33306152 63.38471436 51.66612305 62.76942871 52.00927734 62.13549805 C53.02064417 59.95550159 53.42439053 58.2042217 53.74609375 55.83203125 C53.85937012 55.03047607 53.97264648 54.2289209 54.08935547 53.40307617 C54.20424316 52.54818604 54.31913086 51.6932959 54.4375 50.8125 C54.69764712 48.99196223 54.95939015 47.17165186 55.22265625 45.3515625 C55.3530127 44.44438477 55.48336914 43.53720703 55.61767578 42.60253906 C57.72491435 28.25824587 60.86499393 14.14989226 64 0 C76.54 0 89.08 0 102 0 C101.34 3.3 100.68 6.6 100 10 C99.45021992 13.01570786 98.90831425 16.03156277 98.37890625 19.05078125 C98.08021156 20.73635178 97.78137912 22.4218979 97.48242188 24.10742188 C97.02251902 26.70669208 96.56361913 29.30612545 96.10717773 31.90600586 C88.23375555 76.69750146 88.23375555 76.69750146 77 90 C76.42894531 90.76441406 75.85789062 91.52882813 75.26953125 92.31640625 C67.8887961 101.61707677 55.84144925 108.57230754 44 110 C28.07659755 111.06245111 13.63078463 110.84575425 1 100 C-5.05233932 94.46643262 -10.47601516 85.34418616 -11.16113281 77.04907227 C-11.47304928 60.46490893 -9.81941779 44.81856538 -5.82421875 28.7109375 C-4.42624555 22.41674537 -3.41203759 16.05170594 -2.35766602 9.69213867 C-2.19580811 8.72767822 -2.0339502 7.76321777 -1.8671875 6.76953125 C-1.72394043 5.89917236 -1.58069336 5.02881348 -1.43310547 4.13208008 C-1 2 -1 2 0 0 Z " fill="#6DDBF6" transform="translate(228,291)"/>
<path d="M0 0 C0.1437779 5.06490323 -0.34780561 9.60450726 -1.375 14.5625 C-1.75785156 16.45162109 -1.75785156 16.45162109 -2.1484375 18.37890625 C-3 22 -3 22 -3.9519043 24.65112305 C-5.24932704 28.79665012 -5.93653843 32.92031906 -6.62109375 37.203125 C-6.91985638 39.00652127 -7.21868665 40.80990633 -7.51757812 42.61328125 C-7.97803127 45.42789598 -8.4363397 48.24284408 -8.89282227 51.05810547 C-9.33838377 53.79488596 -9.79193371 56.53026022 -10.24609375 59.265625 C-10.44313148 60.50520966 -10.44313148 60.50520966 -10.64414978 61.76983643 C-11.50055269 66.90793079 -12.74007281 71.7911049 -14.32301331 76.75456238 C-15.34531329 80.14533929 -15.93808686 83.57097607 -16.5 87.0625 C-16.62181641 87.78002441 -16.74363281 88.49754883 -16.86914062 89.23681641 C-17.25167131 91.49031448 -17.62651494 93.74498668 -18 96 C-19.4086221 104.46090329 -20.83537605 112.79647267 -23.2421875 121.04296875 C-24.92260398 127.60005778 -25.89547697 134.32628555 -27 141 C-27.495 143.97 -27.495 143.97 -28 147 C-40.87 147 -53.74 147 -67 147 C-67 135.74488124 -67 135.74488124 -65.9765625 130.80078125 C-65.76 129.73666016 -65.5434375 128.67253906 -65.3203125 127.57617188 C-65.09085937 126.49916016 -64.86140625 125.42214844 -64.625 124.3125 C-64.40328125 123.22388672 -64.1815625 122.13527344 -63.953125 121.01367188 C-63.07627385 116.77125969 -62.17675982 112.59640073 -60.9453125 108.44140625 C-59.60564293 103.56434473 -58.97687529 98.62484414 -58.25 93.625 C-56.70336168 83.40215348 -54.59322827 73.42468935 -52.01855469 63.41259766 C-50.53651199 57.58780273 -49.51375367 51.99172958 -49 46 C-50.65 46 -52.3 46 -54 46 C-54 46.66 -54 47.32 -54 48 C-56.64 48.33 -59.28 48.66 -62 49 C-61.52056435 43.88601975 -60.80517406 39.20388955 -59.51708984 34.22119141 C-58.39915281 29.41902372 -57.82202505 24.50714197 -57.14453125 19.62695312 C-56.96470703 18.40975586 -56.96470703 18.40975586 -56.78125 17.16796875 C-56.6275293 16.07391724 -56.6275293 16.07391724 -56.47070312 14.95776367 C-56 13 -56 13 -54 10 C-51.71606445 9.06445312 -51.71606445 9.06445312 -48.86328125 8.28125 C-47.81825439 7.99000244 -46.77322754 7.69875488 -45.6965332 7.39868164 C-44.02143677 6.95383423 -44.02143677 6.95383423 -42.3125 6.5 C-41.17578857 6.19247803 -40.03907715 5.88495605 -38.86791992 5.56811523 C-25.73772886 2.06293079 -13.662809 -0.56840654 0 0 Z " fill="#92DAF8" transform="translate(546,66)"/>
<path d="M0 0 C-1.27045057 6.46774837 -3.10178046 12.6840448 -5.10107422 18.95703125 C-6.89364991 24.59731401 -8.50744905 30.27248741 -10 36 C-11.45019531 36.02126953 -11.45019531 36.02126953 -12.9296875 36.04296875 C-23.3373079 36.42423801 -31.29430792 37.83639864 -38.875 45.625 C-42.59618257 50.27211063 -44.32131465 55.35221962 -46 61 C-46.23340088 61.7307373 -46.46680176 62.46147461 -46.70727539 63.21435547 C-48.59121527 69.21775752 -49.88946757 75.17583183 -50.9375 81.375 C-51.27320295 83.2919364 -51.61048181 85.2085974 -51.94921875 87.125 C-52.20517822 88.57519531 -52.20517822 88.57519531 -52.46630859 90.0546875 C-53.85640574 97.72629409 -55.44977874 105.35962378 -57 113 C-69.21 113 -81.42 113 -94 113 C-93.29727814 105.97278137 -92.47090518 99.23236881 -91.25 92.3125 C-91.0751709 91.3119458 -90.9003418 90.3113916 -90.72021484 89.28051758 C-89.35236938 81.61565922 -87.71884073 74.03005541 -86.00366211 66.43676758 C-83.66493493 55.86835992 -81.8631564 45.20545219 -80.05517578 34.53588867 C-79.93330399 33.82454269 -79.81143219 33.11319672 -79.68586731 32.3802948 C-79.35345233 30.43768339 -79.02580473 28.4942579 -78.69848633 26.55078125 C-78 23 -78 23 -77.04174805 19.79296875 C-75.62189495 14.62333253 -74.88135524 9.28813147 -74 4 C-62.12 4 -50.24 4 -38 4 C-38 6.97 -38 9.94 -38 13 C-37.40574219 12.55269531 -36.81148437 12.10539062 -36.19921875 11.64453125 C-24.28822008 2.95672662 -14.70751925 0 0 0 Z " fill="#6FDAF6" transform="translate(701,287)"/>
<path d="M0 0 C7.2040047 4.10148001 12.15456373 8.15861436 14.97143555 16.13623047 C16.05115478 20.3400444 15.99380182 24.4960275 15.9375 28.8125 C15.94910156 29.69421875 15.96070313 30.5759375 15.97265625 31.484375 C15.9114094 45.40782488 10.14371518 56.40750253 0.71484375 66.39453125 C-7.57109293 74.20406911 -16.062468 77.17411801 -27.29614258 76.95678711 C-35.56137753 76.54162136 -40.67866728 74.65943015 -46.25 68.5625 C-47.33521291 67.20535439 -48.39964265 65.83119415 -49.4375 64.4375 C-50.22125 63.385625 -51.005 62.33375 -51.8125 61.25 C-56.56643499 53.0220356 -55.47642691 39.90522392 -53.75390625 30.83984375 C-50.15541077 19.26791844 -42.4239263 8.672419 -32.2265625 1.98828125 C-30.31127465 1.00128426 -28.46255346 0.17098393 -26.4375 -0.5625 C-25.50679688 -0.913125 -24.57609375 -1.26375 -23.6171875 -1.625 C-15.5906387 -3.99155002 -7.56626841 -3.56899453 0 0 Z M-24.4375 21.4375 C-30.61592565 28.17141714 -33.71970341 34.80240676 -33.875 43.9375 C-33.91496094 45.2265625 -33.95492188 46.515625 -33.99609375 47.84375 C-33.30321735 52.30141635 -31.97278096 53.7243774 -28.4375 56.4375 C-23.21885981 57.19657494 -19.86095859 56.22620216 -15.4375 53.4375 C-9.13200611 47.88266015 -4.97489091 41.64269334 -4.1015625 33.18359375 C-4.08222656 31.54583984 -4.08222656 31.54583984 -4.0625 29.875 C-4.01996094 28.23337891 -4.01996094 28.23337891 -3.9765625 26.55859375 C-4.53787417 22.75784779 -5.76112062 21.1431828 -8.4375 18.4375 C-14.08338081 16.15226253 -19.52503355 18.31773457 -24.4375 21.4375 Z " fill="#585C5C" transform="translate(404.4375,663.5625)"/>
<path d="M0 0 C2.44333952 1.75419247 4.50298314 3.44346067 6.4375 5.75 C6.4375 6.41 6.4375 7.07 6.4375 7.75 C7.0975 7.75 7.7575 7.75 8.4375 7.75 C12.03644085 13.54271754 11.2195443 21.68862708 9.97265625 28.1640625 C7.24284332 36.2727376 1.65898867 42.3898559 -5.5625 46.75 C-6.5525 46.75 -7.5425 46.75 -8.5625 46.75 C-8.5625 47.41 -8.5625 48.07 -8.5625 48.75 C-25.80718206 49.21677335 -25.80718206 49.21677335 -30.46484375 45.046875 C-36.64022344 38.42949472 -38.05935054 32.73615201 -37.87109375 23.77734375 C-37.04262262 15.64993707 -32.5985082 9.08954571 -26.5625 3.75 C-18.60270441 -2.02365454 -9.30483691 -3.26485506 0 0 Z M-13.625 20.375 C-15.92379314 23.19287547 -16.23756385 25.1757023 -16.5625 28.75 C-13.20751065 27.36172854 -11.41199545 25.89414226 -9.5625 22.75 C-9.5625 21.43 -9.5625 20.11 -9.5625 18.75 C-11.73829343 18.54370926 -11.73829343 18.54370926 -13.625 20.375 Z " fill="#1E2021" transform="translate(892.5625,321.25)"/>
<path d="M0 0 C3.49258713 1.52215716 6.17082936 3.46994873 9 6 C9.825 6.70125 10.65 7.4025 11.5 8.125 C15.36960141 12.96200176 14.40724341 20.15530297 14 26 C12.21138356 34.71571571 6.31040494 43.07342276 -1 48 C-2.32 48 -3.64 48 -5 48 C-5 48.66 -5 49.32 -5 50 C-19.87046632 50.40803109 -19.87046632 50.40803109 -26 48 C-32.19556984 42.07978882 -34.16597485 36.52007333 -34.5 28.1875 C-34.28701898 20.15385574 -32.36404655 14.61758682 -26.875 8.71484375 C-18.5978039 1.0108994 -11.34804157 -1.58847166 0 0 Z M-10.625 22.1875 C-13.23653733 24.75057235 -13.23653733 24.75057235 -13.3125 27.8125 C-13.209375 28.534375 -13.10625 29.25625 -13 30 C-9.17398693 28.54875366 -7.77670876 26.64225296 -6 23 C-6 22.01 -6 21.02 -6 20 C-8.31342361 19.7866052 -8.31342361 19.7866052 -10.625 22.1875 Z " fill="#1E2021" transform="translate(542,320)"/>
<path d="M0 0 C3.07981398 2.26104953 5.0969691 4.18112589 6.5 7.8125 C6.995 12.2675 6.995 12.2675 7.5 16.8125 C-5.7 16.8125 -18.9 16.8125 -32.5 16.8125 C-30.90380664 8.83153322 -26.02895051 3.49631232 -19.5 -1.1875 C-13.13264344 -3.26965246 -5.83960098 -3.44969021 0 0 Z " fill="#232C2E" transform="translate(766.5,319.1875)"/>
<path d="M0 0 C4.33557413 2.92232068 6.62635415 5.9520146 8.24609375 10.90234375 C8.62109375 12.9296875 8.62109375 12.9296875 8.62109375 17.9296875 C-3.91890625 17.9296875 -16.45890625 17.9296875 -29.37890625 17.9296875 C-29.37890625 11.38298033 -27.16274771 9.79392952 -22.8046875 5.24609375 C-16.39378793 -0.87574754 -8.60272531 -3.87052009 0 0 Z " fill="#586061" transform="translate(671.37890625,691.0703125)"/>
<path d="M0 0 C3.75589682 1.25196561 4.30952704 2.56855806 6.5 5.8125 C10.10612074 10.94971111 14.05711824 15.50614575 18.40625 20.02661133 C20.62823863 22.36373506 21.96463579 23.89390736 23 27 C19.37762495 28.20745835 16.0229405 28.22246029 12.25 28.25 C11.21359375 28.2809375 11.21359375 28.2809375 10.15625 28.3125 C4.10691704 28.35798371 -0.50530195 26.90149624 -5.3984375 23.171875 C-8.03484803 19.59664512 -7.65638796 16.36495491 -7.53515625 12.05859375 C-6.61991917 6.82771322 -3.6500968 3.6500968 0 0 Z " fill="#202829" transform="translate(488,529)"/>
<path d="M0 0 C23.43 0 46.86 0 71 0 C71 0.66 71 1.32 71 2 C48.23 2 25.46 2 2 2 C2 3.65 2 5.3 2 7 C0 4 0 4 0 0 Z " fill="#54898F" transform="translate(638,731)"/>
<path d="M0 0 C13.2 0 26.4 0 40 0 C40 4.40285423 39.73734147 6.19956554 38 10 C37.67 10 37.34 10 37 10 C37.33 7.36 37.66 4.72 38 2 C25.79 2 13.58 2 1 2 C0.34 6.95 -0.32 11.9 -1 17 C-1.99 19.475 -1.99 19.475 -3 22 C-4.60726124 17.90684138 -3.4708647 14.02270499 -2.625 9.875 C-2.41617188 8.78251953 -2.41617188 8.78251953 -2.203125 7.66796875 C-1.15223689 2.30447378 -1.15223689 2.30447378 0 0 Z " fill="#63A8BD" transform="translate(94,253)"/>
<path d="M0 0 C0.33 0 0.66 0 1 0 C1.5631984 10.70076954 -1.07528981 20.76351434 -4 31 C-16.87 31 -29.74 31 -43 31 C-41.875 23.125 -41.875 23.125 -40 20 C-40 22.64 -40 25.28 -40 28 C-40.66 28 -41.32 28 -42 28 C-42 28.66 -42 29.32 -42 30 C-29.79 30 -17.58 30 -5 30 C-5 27.03 -5 24.06 -5 21 C-4.39816251 18.97954558 -3.72693904 16.97888961 -3 15 C-2.25363643 11.68163535 -1.63027819 8.34206333 -1 5 C-0.66845034 3.33297759 -0.33561769 1.66620817 0 0 Z " fill="#4EA3AD" transform="translate(579,743)"/>
<path d="M0 0 C13.2 0 26.4 0 40 0 C40 1.65 40 3.3 40 5 C39.34 5.33 38.68 5.66 38 6 C38 4.68 38 3.36 38 2 C25.79 2 13.58 2 1 2 C0.34 4.97 -0.32 7.94 -1 11 C-2 7 -2 7 0 0 Z " fill="#63A8BD" transform="translate(171,253)"/>
<path d="M0 0 C23.43 0 46.86 0 71 0 C71 0.33 71 0.66 71 1 C48.56 1.33 26.12 1.66 3 2 C2.34 3.32 1.68 4.64 1 6 C0.67 4.02 0.34 2.04 0 0 Z " fill="#2B4247" transform="translate(731,358)"/>
<path d="M0 0 C0.66 0.33 1.32 0.66 2 1 C-4.27 7.27 -10.54 13.54 -17 20 C-17 15.59206469 -14.19898652 13.59111129 -11.3125 10.5625 C-10.51682617 9.70301758 -10.51682617 9.70301758 -9.70507812 8.82617188 C-6.66424545 5.58386072 -3.55839592 2.68695202 0 0 Z " fill="#3BBCCE" transform="translate(345,640)"/>
<path d="M0 0 C0.66 0.33 1.32 0.66 2 1 C0.92492371 2.29854721 -0.16043736 3.58858361 -1.25 4.875 C-1.85328125 5.59429687 -2.4565625 6.31359375 -3.078125 7.0546875 C-4.97087634 8.97052118 -6.53657727 9.96449045 -9 11 C-9 11.99 -9 12.98 -9 14 C-9.66 14 -10.32 14 -11 14 C-9.61085525 9.70281047 -7.61968015 7.29312243 -4.375 4.1875 C-3.55773437 3.39730469 -2.74046875 2.60710937 -1.8984375 1.79296875 C-0.95871094 0.90544922 -0.95871094 0.90544922 0 0 Z " fill="#4CB1C6" transform="translate(490,447)"/>
<path d="M0 0 C1.37344385 4.39844322 0.24307502 7.92504555 -0.9375 12.25 C-1.23043945 13.36761719 -1.23043945 13.36761719 -1.52929688 14.5078125 C-2.01104198 16.34079386 -2.50439225 18.17071818 -3 20 C-3.33 20 -3.66 20 -4 20 C-4.4946164 12.45709983 -2.90617391 6.941085 0 0 Z " fill="#4899A3" transform="translate(515,705)"/>
<path d="M0 0 C-1.3881735 3.12857014 -3.01101878 5.28189174 -5.4375 7.6875 C-6.03433594 8.28949219 -6.63117187 8.89148438 -7.24609375 9.51171875 C-9 11 -9 11 -12 12 C-10.53033642 8.60140297 -8.61962486 6.35036291 -6 3.75 C-5.29875 3.04359375 -4.5975 2.3371875 -3.875 1.609375 C-2 0 -2 0 0 0 Z " fill="#62B4CA" transform="translate(721,301)"/>
<path d="M0 0 C0.66 0.33 1.32 0.66 2 1 C0.88200014 2.33920838 -0.24461897 3.67122556 -1.375 5 C-2.00148438 5.7425 -2.62796875 6.485 -3.2734375 7.25 C-4.12808594 8.11625 -4.12808594 8.11625 -5 9 C-5.66 9 -6.32 9 -7 9 C-7 9.66 -7 10.32 -7 11 C-7.66 11 -8.32 11 -9 11 C-7.59155282 7.78475695 -5.89655214 5.67816132 -3.375 3.25 C-2.74335938 2.63640625 -2.11171875 2.0228125 -1.4609375 1.390625 C-0.73777344 0.70226562 -0.73777344 0.70226562 0 0 Z " fill="#44B4C7" transform="translate(462,511)"/>
<path d="M0 0 C0.66 0.33 1.32 0.66 2 1 C0.92492371 2.29854721 -0.16043736 3.58858361 -1.25 4.875 C-1.85328125 5.59429687 -2.4565625 6.31359375 -3.078125 7.0546875 C-4.97087634 8.97052118 -6.53657727 9.96449045 -9 11 C-7.59155282 7.78475695 -5.89655214 5.67816132 -3.375 3.25 C-2.74335938 2.63640625 -2.11171875 2.0228125 -1.4609375 1.390625 C-0.73777344 0.70226562 -0.73777344 0.70226562 0 0 Z " fill="#5DA9BE" transform="translate(494,301)"/>
<path d="M0 0 C-1.59092052 4.13639336 -4.60474918 7.23213248 -8 10 C-8.66 10 -9.32 10 -10 10 C-8.50006099 6.10015857 -4.53875449 0 0 0 Z " fill="#507478" transform="translate(654,693)"/>
<path d="M0 0 C-1.44077046 3.36179774 -3.24750021 5.59156268 -6 8 C-6.66 8 -7.32 8 -8 8 C-8 8.99 -8 9.98 -8 11 C-8.66 11 -9.32 11 -10 11 C-8.73396788 6.69549079 -5.08358566 0 0 0 Z " fill="#2F474D" transform="translate(521,325)"/>
<path d="M0 0 C0.66 0.33 1.32 0.66 2 1 C0.88200014 2.33920838 -0.24461897 3.67122556 -1.375 5 C-2.00148438 5.7425 -2.62796875 6.485 -3.2734375 7.25 C-4.12808594 8.11625 -4.12808594 8.11625 -5 9 C-5.66 9 -6.32 9 -7 9 C-5.44499019 5.18315774 -2.96404505 2.80804268 0 0 Z " fill="#2B3F44" transform="translate(667,327)"/>
<path d="M0 0 C0.33 0 0.66 0 1 0 C1 2.31 1 4.62 1 7 C2.98 7 4.96 7 7 7 C3.91190305 8.76462683 2.76687864 9 -1 9 C-0.67 6.03 -0.34 3.06 0 0 Z " fill="#638B9D" transform="translate(485,106)"/>
<path d="M0 0 C0.66 0.33 1.32 0.66 2 1 C-2.625 6.875 -2.625 6.875 -6 8 C-4.55746343 4.63408134 -2.66735273 2.48952921 0 0 Z " fill="#324F56" transform="translate(866,325)"/>
<path d="M0 0 C0.66 0.33 1.32 0.66 2 1 C0.71451591 2.33929505 -0.57858155 3.67128643 -1.875 5 C-2.59429688 5.7425 -3.31359375 6.485 -4.0546875 7.25 C-6 9 -6 9 -8 9 C-6.90101298 5.70303895 -6.05402613 4.95329411 -3.4375 2.8125 C-2.79683594 2.28269531 -2.15617188 1.75289063 -1.49609375 1.20703125 C-0.75552734 0.60955078 -0.75552734 0.60955078 0 0 Z " fill="#62B2C9" transform="translate(844,299)"/>
<path d="M0 0 C-1.49097658 3.7952131 -3.75700849 5.61042731 -7 8 C-4.18918919 0 -4.18918919 0 0 0 Z " fill="#4D7E85" transform="translate(523,697)"/>
<path d="M0 0 C-1.45255699 3.82946843 -3.42895561 5.12050295 -7 7 C-3.86206897 0 -3.86206897 0 0 0 Z " fill="#34535B" transform="translate(745,321)"/>
</svg>
